<svg width="80" height="80" viewBox="0 0 80 80" fill="none" xmlns="http://www.w3.org/2000/svg" role="img" aria-label="Blu Saffron emblem">
  <circle cx="40" cy="40" r="38" fill="#0e1a2b" stroke="#e0a63c" stroke-width="2"/>
  <!-- saffron flower / star motif -->
  <g fill="none" stroke="#e0a63c" stroke-width="2.4" stroke-linecap="round">
    <path d="M40 20 C43 30 43 34 40 40 C37 34 37 30 40 20 Z" fill="#e0a63c" stroke="none"/>
    <path d="M60 40 C50 43 46 43 40 40 C46 37 50 37 60 40 Z" fill="#e0a63c" stroke="none"/>
    <path d="M40 60 C37 50 37 46 40 40 C43 46 43 50 40 60 Z" fill="#e0a63c" stroke="none"/>
    <path d="M20 40 C30 37 34 37 40 40 C34 43 30 43 20 40 Z" fill="#e0a63c" stroke="none"/>
    <path d="M54 26 C48 32 45 34 40 40 C45 37 48 34 54 26 Z" fill="#c98a1f" stroke="none"/>
    <path d="M54 54 C48 48 45 46 40 40 C45 45 48 48 54 54 Z" fill="#c98a1f" stroke="none"/>
    <path d="M26 54 C32 48 34 45 40 40 C34 45 32 48 26 54 Z" fill="#c98a1f" stroke="none"/>
    <path d="M26 26 C32 32 34 35 40 40 C34 35 32 32 26 26 Z" fill="#c98a1f" stroke="none"/>
  </g>
  <circle cx="40" cy="40" r="4.5" fill="#f7f2e7"/>
</svg>
